ISO-10303-21;
HEADER;
/* Generated by software containing ST-Developer
 * from STEP Tools, Inc. (www.steptools.com) 
 */

FILE_DESCRIPTION(
/* description */ (''),
/* implementation_level */ '2;1');

FILE_NAME(
/* name */ 'servo horn holder.step',
/* time_stamp */ '2026-06-30T13:39:51-07:00',
/* author */ (''),
/* organization */ (''),
/* preprocessor_version */ 'ST-DEVELOPER v20.1',
/* originating_system */ 'Autodesk Translation Framework v14.21.0.0',
/* authorisation */ '');

FILE_SCHEMA (('AUTOMOTIVE_DESIGN { 1 0 10303 214 3 1 1 }'));
ENDSEC;

DATA;
#10=MECHANICAL_DESIGN_GEOMETRIC_PRESENTATION_REPRESENTATION('',(#17),#479);
#11=ITEM_DEFINED_TRANSFORMATION($,$,#291,#315);
#12=(
REPRESENTATION_RELATIONSHIP($,$,#490,#489)
REPRESENTATION_RELATIONSHIP_WITH_TRANSFORMATION(#11)
SHAPE_REPRESENTATION_RELATIONSHIP()
);
#13=CONTEXT_DEPENDENT_SHAPE_REPRESENTATION(#12,#488);
#14=NEXT_ASSEMBLY_USAGE_OCCURRENCE('hornholder:1','hornholder:1',
'hornholder:1',#492,#493,'hornholder:1');
#15=SHAPE_REPRESENTATION_RELATIONSHIP('SRR','None',#490,#16);
#16=ADVANCED_BREP_SHAPE_REPRESENTATION('',(#18),#478);
#17=STYLED_ITEM('',(#503),#18);
#18=MANIFOLD_SOLID_BREP('Body1',#277);
#19=FACE_BOUND('',#60,.T.);
#20=PLANE('',#295);
#21=PLANE('',#299);
#22=PLANE('',#303);
#23=PLANE('',#307);
#24=PLANE('',#308);
#25=PLANE('',#309);
#26=PLANE('',#310);
#27=PLANE('',#311);
#28=PLANE('',#312);
#29=PLANE('',#313);
#30=PLANE('',#314);
#31=FACE_OUTER_BOUND('',#46,.T.);
#32=FACE_OUTER_BOUND('',#47,.T.);
#33=FACE_OUTER_BOUND('',#48,.T.);
#34=FACE_OUTER_BOUND('',#49,.T.);
#35=FACE_OUTER_BOUND('',#50,.T.);
#36=FACE_OUTER_BOUND('',#51,.T.);
#37=FACE_OUTER_BOUND('',#52,.T.);
#38=FACE_OUTER_BOUND('',#53,.T.);
#39=FACE_OUTER_BOUND('',#54,.T.);
#40=FACE_OUTER_BOUND('',#55,.T.);
#41=FACE_OUTER_BOUND('',#56,.T.);
#42=FACE_OUTER_BOUND('',#57,.T.);
#43=FACE_OUTER_BOUND('',#58,.T.);
#44=FACE_OUTER_BOUND('',#59,.T.);
#45=FACE_OUTER_BOUND('',#61,.T.);
#46=EDGE_LOOP('',(#186,#187,#188,#189));
#47=EDGE_LOOP('',(#190,#191,#192,#193));
#48=EDGE_LOOP('',(#194,#195,#196,#197));
#49=EDGE_LOOP('',(#198,#199,#200,#201));
#50=EDGE_LOOP('',(#202,#203,#204,#205));
#51=EDGE_LOOP('',(#206,#207,#208,#209));
#52=EDGE_LOOP('',(#210,#211,#212,#213));
#53=EDGE_LOOP('',(#214,#215,#216,#217));
#54=EDGE_LOOP('',(#218,#219,#220,#221,#222,#223,#224,#225));
#55=EDGE_LOOP('',(#226,#227,#228,#229));
#56=EDGE_LOOP('',(#230,#231,#232,#233));
#57=EDGE_LOOP('',(#234,#235,#236,#237));
#58=EDGE_LOOP('',(#238,#239,#240,#241));
#59=EDGE_LOOP('',(#242,#243,#244,#245));
#60=EDGE_LOOP('',(#246,#247,#248,#249,#250,#251,#252,#253));
#61=EDGE_LOOP('',(#254,#255,#256,#257));
#62=LINE('',#403,#90);
#63=LINE('',#406,#91);
#64=LINE('',#409,#92);
#65=LINE('',#411,#93);
#66=LINE('',#412,#94);
#67=LINE('',#418,#95);
#68=LINE('',#421,#96);
#69=LINE('',#423,#97);
#70=LINE('',#424,#98);
#71=LINE('',#430,#99);
#72=LINE('',#433,#100);
#73=LINE('',#435,#101);
#74=LINE('',#436,#102);
#75=LINE('',#441,#103);
#76=LINE('',#444,#104);
#77=LINE('',#445,#105);
#78=LINE('',#450,#106);
#79=LINE('',#452,#107);
#80=LINE('',#454,#108);
#81=LINE('',#455,#109);
#82=LINE('',#458,#110);
#83=LINE('',#460,#111);
#84=LINE('',#461,#112);
#85=LINE('',#464,#113);
#86=LINE('',#466,#114);
#87=LINE('',#467,#115);
#88=LINE('',#469,#116);
#89=LINE('',#470,#117);
#90=VECTOR('',#324,10.);
#91=VECTOR('',#327,10.);
#92=VECTOR('',#330,10.);
#93=VECTOR('',#331,10.);
#94=VECTOR('',#332,10.);
#95=VECTOR('',#339,10.);
#96=VECTOR('',#342,10.);
#97=VECTOR('',#343,10.);
#98=VECTOR('',#344,10.);
#99=VECTOR('',#351,10.);
#100=VECTOR('',#354,10.);
#101=VECTOR('',#355,10.);
#102=VECTOR('',#356,10.);
#103=VECTOR('',#361,10.);
#104=VECTOR('',#366,10.);
#105=VECTOR('',#367,10.);
#106=VECTOR('',#372,10.);
#107=VECTOR('',#373,10.);
#108=VECTOR('',#374,10.);
#109=VECTOR('',#375,10.);
#110=VECTOR('',#378,10.);
#111=VECTOR('',#379,10.);
#112=VECTOR('',#380,10.);
#113=VECTOR('',#383,10.);
#114=VECTOR('',#384,10.);
#115=VECTOR('',#385,10.);
#116=VECTOR('',#388,10.);
#117=VECTOR('',#389,10.);
#118=CIRCLE('',#293,5.96006436525105);
#119=CIRCLE('',#294,5.96006436525105);
#120=CIRCLE('',#297,2.00000193447477);
#121=CIRCLE('',#298,2.00000193447477);
#122=CIRCLE('',#301,5.96006436525105);
#123=CIRCLE('',#302,5.96006436525105);
#124=CIRCLE('',#305,2.00914741074793);
#125=CIRCLE('',#306,2.00914741074793);
#126=VERTEX_POINT('',#399);
#127=VERTEX_POINT('',#400);
#128=VERTEX_POINT('',#402);
#129=VERTEX_POINT('',#404);
#130=VERTEX_POINT('',#408);
#131=VERTEX_POINT('',#410);
#132=VERTEX_POINT('',#414);
#133=VERTEX_POINT('',#416);
#134=VERTEX_POINT('',#420);
#135=VERTEX_POINT('',#422);
#136=VERTEX_POINT('',#426);
#137=VERTEX_POINT('',#428);
#138=VERTEX_POINT('',#432);
#139=VERTEX_POINT('',#434);
#140=VERTEX_POINT('',#438);
#141=VERTEX_POINT('',#440);
#142=VERTEX_POINT('',#448);
#143=VERTEX_POINT('',#449);
#144=VERTEX_POINT('',#451);
#145=VERTEX_POINT('',#453);
#146=VERTEX_POINT('',#457);
#147=VERTEX_POINT('',#459);
#148=VERTEX_POINT('',#463);
#149=VERTEX_POINT('',#465);
#150=EDGE_CURVE('',#126,#127,#118,.T.);
#151=EDGE_CURVE('',#126,#128,#62,.T.);
#152=EDGE_CURVE('',#128,#129,#119,.T.);
#153=EDGE_CURVE('',#127,#129,#63,.T.);
#154=EDGE_CURVE('',#127,#130,#64,.T.);
#155=EDGE_CURVE('',#129,#131,#65,.T.);
#156=EDGE_CURVE('',#130,#131,#66,.T.);
#157=EDGE_CURVE('',#130,#132,#120,.T.);
#158=EDGE_CURVE('',#131,#133,#121,.T.);
#159=EDGE_CURVE('',#132,#133,#67,.T.);
#160=EDGE_CURVE('',#132,#134,#68,.T.);
#161=EDGE_CURVE('',#133,#135,#69,.T.);
#162=EDGE_CURVE('',#134,#135,#70,.T.);
#163=EDGE_CURVE('',#134,#136,#122,.T.);
#164=EDGE_CURVE('',#135,#137,#123,.T.);
#165=EDGE_CURVE('',#136,#137,#71,.T.);
#166=EDGE_CURVE('',#138,#126,#72,.T.);
#167=EDGE_CURVE('',#138,#139,#73,.T.);
#168=EDGE_CURVE('',#139,#128,#74,.T.);
#169=EDGE_CURVE('',#140,#138,#124,.T.);
#170=EDGE_CURVE('',#140,#141,#75,.T.);
#171=EDGE_CURVE('',#141,#139,#125,.T.);
#172=EDGE_CURVE('',#136,#140,#76,.T.);
#173=EDGE_CURVE('',#137,#141,#77,.T.);
#174=EDGE_CURVE('',#142,#143,#78,.T.);
#175=EDGE_CURVE('',#142,#144,#79,.T.);
#176=EDGE_CURVE('',#145,#144,#80,.T.);
#177=EDGE_CURVE('',#143,#145,#81,.T.);
#178=EDGE_CURVE('',#143,#146,#82,.T.);
#179=EDGE_CURVE('',#147,#145,#83,.T.);
#180=EDGE_CURVE('',#146,#147,#84,.T.);
#181=EDGE_CURVE('',#146,#148,#85,.T.);
#182=EDGE_CURVE('',#149,#147,#86,.T.);
#183=EDGE_CURVE('',#148,#149,#87,.T.);
#184=EDGE_CURVE('',#148,#142,#88,.T.);
#185=EDGE_CURVE('',#144,#149,#89,.T.);
#186=ORIENTED_EDGE('',*,*,#150,.F.);
#187=ORIENTED_EDGE('',*,*,#151,.T.);
#188=ORIENTED_EDGE('',*,*,#152,.T.);
#189=ORIENTED_EDGE('',*,*,#153,.F.);
#190=ORIENTED_EDGE('',*,*,#154,.F.);
#191=ORIENTED_EDGE('',*,*,#153,.T.);
#192=ORIENTED_EDGE('',*,*,#155,.T.);
#193=ORIENTED_EDGE('',*,*,#156,.F.);
#194=ORIENTED_EDGE('',*,*,#157,.F.);
#195=ORIENTED_EDGE('',*,*,#156,.T.);
#196=ORIENTED_EDGE('',*,*,#158,.T.);
#197=ORIENTED_EDGE('',*,*,#159,.F.);
#198=ORIENTED_EDGE('',*,*,#160,.F.);
#199=ORIENTED_EDGE('',*,*,#159,.T.);
#200=ORIENTED_EDGE('',*,*,#161,.T.);
#201=ORIENTED_EDGE('',*,*,#162,.F.);
#202=ORIENTED_EDGE('',*,*,#163,.F.);
#203=ORIENTED_EDGE('',*,*,#162,.T.);
#204=ORIENTED_EDGE('',*,*,#164,.T.);
#205=ORIENTED_EDGE('',*,*,#165,.F.);
#206=ORIENTED_EDGE('',*,*,#166,.F.);
#207=ORIENTED_EDGE('',*,*,#167,.T.);
#208=ORIENTED_EDGE('',*,*,#168,.T.);
#209=ORIENTED_EDGE('',*,*,#151,.F.);
#210=ORIENTED_EDGE('',*,*,#169,.F.);
#211=ORIENTED_EDGE('',*,*,#170,.T.);
#212=ORIENTED_EDGE('',*,*,#171,.T.);
#213=ORIENTED_EDGE('',*,*,#167,.F.);
#214=ORIENTED_EDGE('',*,*,#172,.F.);
#215=ORIENTED_EDGE('',*,*,#165,.T.);
#216=ORIENTED_EDGE('',*,*,#173,.T.);
#217=ORIENTED_EDGE('',*,*,#170,.F.);
#218=ORIENTED_EDGE('',*,*,#173,.F.);
#219=ORIENTED_EDGE('',*,*,#164,.F.);
#220=ORIENTED_EDGE('',*,*,#161,.F.);
#221=ORIENTED_EDGE('',*,*,#158,.F.);
#222=ORIENTED_EDGE('',*,*,#155,.F.);
#223=ORIENTED_EDGE('',*,*,#152,.F.);
#224=ORIENTED_EDGE('',*,*,#168,.F.);
#225=ORIENTED_EDGE('',*,*,#171,.F.);
#226=ORIENTED_EDGE('',*,*,#174,.F.);
#227=ORIENTED_EDGE('',*,*,#175,.T.);
#228=ORIENTED_EDGE('',*,*,#176,.F.);
#229=ORIENTED_EDGE('',*,*,#177,.F.);
#230=ORIENTED_EDGE('',*,*,#178,.F.);
#231=ORIENTED_EDGE('',*,*,#177,.T.);
#232=ORIENTED_EDGE('',*,*,#179,.F.);
#233=ORIENTED_EDGE('',*,*,#180,.F.);
#234=ORIENTED_EDGE('',*,*,#181,.F.);
#235=ORIENTED_EDGE('',*,*,#180,.T.);
#236=ORIENTED_EDGE('',*,*,#182,.F.);
#237=ORIENTED_EDGE('',*,*,#183,.F.);
#238=ORIENTED_EDGE('',*,*,#184,.F.);
#239=ORIENTED_EDGE('',*,*,#183,.T.);
#240=ORIENTED_EDGE('',*,*,#185,.F.);
#241=ORIENTED_EDGE('',*,*,#175,.F.);
#242=ORIENTED_EDGE('',*,*,#185,.T.);
#243=ORIENTED_EDGE('',*,*,#182,.T.);
#244=ORIENTED_EDGE('',*,*,#179,.T.);
#245=ORIENTED_EDGE('',*,*,#176,.T.);
#246=ORIENTED_EDGE('',*,*,#163,.T.);
#247=ORIENTED_EDGE('',*,*,#172,.T.);
#248=ORIENTED_EDGE('',*,*,#169,.T.);
#249=ORIENTED_EDGE('',*,*,#166,.T.);
#250=ORIENTED_EDGE('',*,*,#150,.T.);
#251=ORIENTED_EDGE('',*,*,#154,.T.);
#252=ORIENTED_EDGE('',*,*,#157,.T.);
#253=ORIENTED_EDGE('',*,*,#160,.T.);
#254=ORIENTED_EDGE('',*,*,#184,.T.);
#255=ORIENTED_EDGE('',*,*,#174,.T.);
#256=ORIENTED_EDGE('',*,*,#178,.T.);
#257=ORIENTED_EDGE('',*,*,#181,.T.);
#258=CYLINDRICAL_SURFACE('',#292,5.96006436525105);
#259=CYLINDRICAL_SURFACE('',#296,2.00000193447477);
#260=CYLINDRICAL_SURFACE('',#300,5.96006436525105);
#261=CYLINDRICAL_SURFACE('',#304,2.00914741074793);
#262=ADVANCED_FACE('',(#31),#258,.F.);
#263=ADVANCED_FACE('',(#32),#20,.F.);
#264=ADVANCED_FACE('',(#33),#259,.F.);
#265=ADVANCED_FACE('',(#34),#21,.F.);
#266=ADVANCED_FACE('',(#35),#260,.F.);
#267=ADVANCED_FACE('',(#36),#22,.F.);
#268=ADVANCED_FACE('',(#37),#261,.F.);
#269=ADVANCED_FACE('',(#38),#23,.F.);
#270=ADVANCED_FACE('',(#39),#24,.T.);
#271=ADVANCED_FACE('',(#40),#25,.T.);
#272=ADVANCED_FACE('',(#41),#26,.T.);
#273=ADVANCED_FACE('',(#42),#27,.T.);
#274=ADVANCED_FACE('',(#43),#28,.T.);
#275=ADVANCED_FACE('',(#44,#19),#29,.T.);
#276=ADVANCED_FACE('',(#45),#30,.F.);
#277=CLOSED_SHELL('',(#262,#263,#264,#265,#266,#267,#268,#269,#270,#271,
#272,#273,#274,#275,#276));
#278=DERIVED_UNIT_ELEMENT(#280,1.);
#279=DERIVED_UNIT_ELEMENT(#481,-3.);
#280=(
MASS_UNIT()
NAMED_UNIT(*)
SI_UNIT(.KILO.,.GRAM.)
);
#281=DERIVED_UNIT((#278,#279));
#282=MEASURE_REPRESENTATION_ITEM('density measure',
POSITIVE_RATIO_MEASURE(7850.),#281);
#283=PROPERTY_DEFINITION_REPRESENTATION(#288,#285);
#284=PROPERTY_DEFINITION_REPRESENTATION(#289,#286);
#285=REPRESENTATION('material name',(#287),#478);
#286=REPRESENTATION('density',(#282),#478);
#287=DESCRIPTIVE_REPRESENTATION_ITEM('Steel','Steel');
#288=PROPERTY_DEFINITION('material property','material name',#493);
#289=PROPERTY_DEFINITION('material property','density of part',#493);
#290=AXIS2_PLACEMENT_3D('',#396,#316,#317);
#291=AXIS2_PLACEMENT_3D('',#397,#318,#319);
#292=AXIS2_PLACEMENT_3D('',#398,#320,#321);
#293=AXIS2_PLACEMENT_3D('',#401,#322,#323);
#294=AXIS2_PLACEMENT_3D('',#405,#325,#326);
#295=AXIS2_PLACEMENT_3D('',#407,#328,#329);
#296=AXIS2_PLACEMENT_3D('',#413,#333,#334);
#297=AXIS2_PLACEMENT_3D('',#415,#335,#336);
#298=AXIS2_PLACEMENT_3D('',#417,#337,#338);
#299=AXIS2_PLACEMENT_3D('',#419,#340,#341);
#300=AXIS2_PLACEMENT_3D('',#425,#345,#346);
#301=AXIS2_PLACEMENT_3D('',#427,#347,#348);
#302=AXIS2_PLACEMENT_3D('',#429,#349,#350);
#303=AXIS2_PLACEMENT_3D('',#431,#352,#353);
#304=AXIS2_PLACEMENT_3D('',#437,#357,#358);
#305=AXIS2_PLACEMENT_3D('',#439,#359,#360);
#306=AXIS2_PLACEMENT_3D('',#442,#362,#363);
#307=AXIS2_PLACEMENT_3D('',#443,#364,#365);
#308=AXIS2_PLACEMENT_3D('',#446,#368,#369);
#309=AXIS2_PLACEMENT_3D('',#447,#370,#371);
#310=AXIS2_PLACEMENT_3D('',#456,#376,#377);
#311=AXIS2_PLACEMENT_3D('',#462,#381,#382);
#312=AXIS2_PLACEMENT_3D('',#468,#386,#387);
#313=AXIS2_PLACEMENT_3D('',#471,#390,#391);
#314=AXIS2_PLACEMENT_3D('',#472,#392,#393);
#315=AXIS2_PLACEMENT_3D('',#473,#394,#395);
#316=DIRECTION('axis',(0.,0.,1.));
#317=DIRECTION('refdir',(1.,0.,0.));
#318=DIRECTION('axis',(0.,0.,1.));
#319=DIRECTION('refdir',(1.,0.,0.));
#320=DIRECTION('center_axis',(0.,0.,-1.));
#321=DIRECTION('ref_axis',(1.,0.,0.));
#322=DIRECTION('center_axis',(0.,1.85037170770859E-15,-1.));
#323=DIRECTION('ref_axis',(1.,0.,0.));
#324=DIRECTION('',(0.,0.,-1.));
#325=DIRECTION('center_axis',(0.,0.,-1.));
#326=DIRECTION('ref_axis',(1.,0.,0.));
#327=DIRECTION('',(0.,0.,-1.));
#328=DIRECTION('center_axis',(-0.16894972756598,-0.985624669717323,0.));
#329=DIRECTION('ref_axis',(-0.985624669717323,0.16894972756598,0.));
#330=DIRECTION('',(-0.985624669717323,0.16894972756598,3.12619795913163E-16));
#331=DIRECTION('',(-0.985624669717323,0.16894972756598,0.));
#332=DIRECTION('',(0.,0.,-1.));
#333=DIRECTION('center_axis',(0.,0.,-1.));
#334=DIRECTION('ref_axis',(-1.,2.091966068383E-15,0.));
#335=DIRECTION('center_axis',(0.,1.85037170770859E-15,-1.));
#336=DIRECTION('ref_axis',(0.00140683167296341,0.999999010411832,0.));
#337=DIRECTION('center_axis',(0.,0.,-1.));
#338=DIRECTION('ref_axis',(0.00140683167296341,0.999999010411832,0.));
#339=DIRECTION('',(0.,0.,-1.));
#340=DIRECTION('center_axis',(-0.173179981585055,0.984890193868433,0.));
#341=DIRECTION('ref_axis',(0.984890193868433,0.173179981585055,0.));
#342=DIRECTION('',(0.984890193868433,0.173179981585055,3.20447338266481E-16));
#343=DIRECTION('',(0.984890193868433,0.173179981585055,0.));
#344=DIRECTION('',(0.,0.,-1.));
#345=DIRECTION('center_axis',(0.,0.,-1.));
#346=DIRECTION('ref_axis',(1.,0.,0.));
#347=DIRECTION('center_axis',(0.,1.85037170770859E-15,-1.));
#348=DIRECTION('ref_axis',(1.,0.,0.));
#349=DIRECTION('center_axis',(0.,0.,-1.));
#350=DIRECTION('ref_axis',(1.,0.,0.));
#351=DIRECTION('',(0.,0.,-1.));
#352=DIRECTION('center_axis',(0.169381694116014,-0.985550527217346,0.));
#353=DIRECTION('ref_axis',(-0.985550527217346,-0.169381694116014,0.));
#354=DIRECTION('',(-0.985550527217346,-0.169381694116014,-3.13419094596024E-16));
#355=DIRECTION('',(0.,0.,-1.));
#356=DIRECTION('',(-0.985550527217346,-0.169381694116014,0.));
#357=DIRECTION('center_axis',(0.,0.,-1.));
#358=DIRECTION('ref_axis',(1.,1.53039908606022E-15,0.));
#359=DIRECTION('center_axis',(0.,1.85037170770859E-15,-1.));
#360=DIRECTION('ref_axis',(-0.0120085566185131,-0.999927894684382,0.));
#361=DIRECTION('',(0.,0.,-1.));
#362=DIRECTION('center_axis',(0.,0.,-1.));
#363=DIRECTION('ref_axis',(-0.0120085566185131,-0.999927894684382,0.));
#364=DIRECTION('center_axis',(0.172846173733124,0.984948831272883,0.));
#365=DIRECTION('ref_axis',(0.984948831272883,-0.172846173733124,0.));
#366=DIRECTION('',(0.984948831272883,-0.172846173733124,-3.19829669661457E-16));
#367=DIRECTION('',(0.984948831272883,-0.172846173733124,0.));
#368=DIRECTION('center_axis',(0.,0.,1.));
#369=DIRECTION('ref_axis',(1.,0.,0.));
#370=DIRECTION('center_axis',(1.,-1.35990268449491E-47,-2.51632545262635E-62));
#371=DIRECTION('ref_axis',(1.35990268449491E-47,1.,1.47104550762833E-15));
#372=DIRECTION('',(-1.35990268449491E-47,-1.,-1.47104550762833E-15));
#373=DIRECTION('',(0.,-1.85037170770859E-15,1.));
#374=DIRECTION('',(1.35990268449491E-47,1.,1.47104550762833E-15));
#375=DIRECTION('',(0.,-1.85037170770859E-15,1.));
#376=DIRECTION('center_axis',(-1.71056941445901E-47,-1.,-1.85037170770859E-15));
#377=DIRECTION('ref_axis',(1.,0.,-9.24446373305875E-33));
#378=DIRECTION('',(-1.,0.,9.24446373305875E-33));
#379=DIRECTION('',(1.,0.,-9.24446373305875E-33));
#380=DIRECTION('',(0.,-1.85037170770859E-15,1.));
#381=DIRECTION('center_axis',(-1.,1.1248226529534E-47,2.08134001321469E-62));
#382=DIRECTION('ref_axis',(-1.1248226529534E-47,-1.,-1.21675273486223E-15));
#383=DIRECTION('',(1.1248226529534E-47,1.,1.21675273486223E-15));
#384=DIRECTION('',(-1.1248226529534E-47,-1.,-1.21675273486223E-15));
#385=DIRECTION('',(0.,-1.85037170770859E-15,1.));
#386=DIRECTION('center_axis',(-3.81839921091388E-32,1.,1.85037170770859E-15));
#387=DIRECTION('ref_axis',(-1.,1.48079384033001E-31,-1.00662680566381E-16));
#388=DIRECTION('',(1.,-1.48079384033001E-31,1.00662680566381E-16));
#389=DIRECTION('',(-1.,1.48079384033001E-31,-1.00662680566381E-16));
#390=DIRECTION('center_axis',(0.,-1.85037170770859E-15,1.));
#391=DIRECTION('ref_axis',(1.,0.,0.));
#392=DIRECTION('center_axis',(9.24446373305875E-33,-1.21675273486223E-15,
1.));
#393=DIRECTION('ref_axis',(-1.,0.,9.24446373305875E-33));
#394=DIRECTION('',(0.,0.,1.));
#395=DIRECTION('',(1.,0.,0.));
#396=CARTESIAN_POINT('',(0.,0.,0.));
#397=CARTESIAN_POINT('',(0.,0.,0.));
#398=CARTESIAN_POINT('Origin',(-42.1556533376496,45.0051372348272,5.00000000000018));
#399=CARTESIAN_POINT('',(-38.1613628933151,40.5815627656639,4.91219173945045));
#400=CARTESIAN_POINT('',(-46.1451398451203,40.5772297555944,4.91219173945045));
#401=CARTESIAN_POINT('Origin',(-42.1556533376496,45.0051372348272,4.91219173945046));
#402=CARTESIAN_POINT('',(-38.1613628933151,40.5815627656639,2.00000000000018));
#403=CARTESIAN_POINT('',(-38.1613628933151,40.5815627656639,5.00000000000018));
#404=CARTESIAN_POINT('',(-46.1451398451203,40.5772297555944,2.00000000000018));
#405=CARTESIAN_POINT('Origin',(-42.1556533376496,45.0051372348272,2.00000000000018));
#406=CARTESIAN_POINT('',(-46.1451398451203,40.5772297555944,5.00000000000018));
#407=CARTESIAN_POINT('Origin',(-46.1451398451203,40.5772297555944,5.00000000000018));
#408=CARTESIAN_POINT('',(-60.0729519623315,42.9646497696124,4.91219173945045));
#409=CARTESIAN_POINT('',(-44.702201452577,40.3298901183017,4.91219173945045));
#410=CARTESIAN_POINT('',(-60.0729519623315,42.9646497696124,2.00000000000018));
#411=CARTESIAN_POINT('',(-60.0729519623315,42.9646497696124,2.00000000000018));
#412=CARTESIAN_POINT('',(-60.0729519623315,42.9646497696124,5.00000000000018));
#413=CARTESIAN_POINT('Origin',(-60.0757656283989,44.9646497249089,5.00000000000018));
#414=CARTESIAN_POINT('',(-60.0729519623315,46.9646496802054,4.91219173945046));
#415=CARTESIAN_POINT('Origin',(-60.0757656283989,44.9646497249089,4.91219173945046));
#416=CARTESIAN_POINT('',(-60.0729519623315,46.9646496802054,2.00000000000018));
#417=CARTESIAN_POINT('Origin',(-60.0757656283989,44.9646497249089,2.00000000000018));
#418=CARTESIAN_POINT('',(-60.0729519623315,46.9646496802054,5.00000000000018));
#419=CARTESIAN_POINT('Origin',(-60.0729519623315,46.9646496802054,5.00000000000018));
#420=CARTESIAN_POINT('',(-46.1716556109307,49.4090097328608,4.91219173945046));
#421=CARTESIAN_POINT('',(-51.5933499085775,48.4556761282908,4.91219173945046));
#422=CARTESIAN_POINT('',(-46.1716556109307,49.4090097328608,2.00000000000018));
#423=CARTESIAN_POINT('',(-42.1506797017949,50.1160454392099,2.00000000000018));
#424=CARTESIAN_POINT('',(-46.1716556109307,49.4090097328608,5.00000000000018));
#425=CARTESIAN_POINT('Origin',(-42.1556533376496,45.0051372348272,5.00000000000018));
#426=CARTESIAN_POINT('',(-38.1439342094241,49.4129118291282,4.91219173945046));
#427=CARTESIAN_POINT('Origin',(-42.1556533376496,45.0051372348272,4.91219173945046));
#428=CARTESIAN_POINT('',(-38.1439342094241,49.4129118291282,2.00000000000018));
#429=CARTESIAN_POINT('Origin',(-42.1556533376496,45.0051372348272,2.00000000000018));
#430=CARTESIAN_POINT('',(-38.1439342094241,49.4129118291282,5.00000000000018));
#431=CARTESIAN_POINT('Origin',(-24.2953269830969,42.9646497696124,5.00000000000018));
#432=CARTESIAN_POINT('',(-24.2953269830969,42.9646497696124,4.91219173945045));
#433=CARTESIAN_POINT('',(-32.8432298339508,41.4955639885874,4.91219173945045));
#434=CARTESIAN_POINT('',(-24.2953269830969,42.9646497696124,2.00000000000018));
#435=CARTESIAN_POINT('',(-24.2953269830969,42.9646497696124,5.00000000000018));
#436=CARTESIAN_POINT('',(-42.1606269735044,39.8942290304445,2.00000000000018));
#437=CARTESIAN_POINT('Origin',(-24.27120002266,44.9736523101522,5.00000000000018));
#438=CARTESIAN_POINT('',(-24.2953269830969,46.9826548506919,4.91219173945046));
#439=CARTESIAN_POINT('Origin',(-24.27120002266,44.9736523101522,4.91219173945046));
#440=CARTESIAN_POINT('',(-24.2953269830969,46.9826548506919,2.00000000000018));
#441=CARTESIAN_POINT('',(-24.2953269830969,46.9826548506919,5.00000000000018));
#442=CARTESIAN_POINT('Origin',(-24.27120002266,44.9736523101522,2.00000000000018));
#443=CARTESIAN_POINT('Origin',(-38.1439342094241,49.4129118291281,5.00000000000018));
#444=CARTESIAN_POINT('',(-39.841662073924,49.7108417886365,4.91219173945046));
#445=CARTESIAN_POINT('',(-24.2953269830969,46.9826548506919,2.00000000000018));
#446=CARTESIAN_POINT('Origin',(-42.1689100873929,45.0051372348272,2.00000000000018));
#447=CARTESIAN_POINT('Origin',(-20.272953149954,36.7646477102719,0.112191739450452));
#448=CARTESIAN_POINT('',(-20.272953149954,54.2283453615828,0.112191739450477));
#449=CARTESIAN_POINT('',(-20.272953149954,36.7646477102719,0.112191739450451));
#450=CARTESIAN_POINT('',(-20.272953149954,54.2283453615828,0.112191739450477));
#451=CARTESIAN_POINT('',(-20.272953149954,54.2283453615828,4.91219173945048));
#452=CARTESIAN_POINT('',(-20.272953149954,54.2283453615828,0.112191739450477));
#453=CARTESIAN_POINT('',(-20.272953149954,36.7646477102719,4.91219173945045));
#454=CARTESIAN_POINT('',(-20.272953149954,54.2283453615828,4.91219173945048));
#455=CARTESIAN_POINT('',(-20.272953149954,36.7646477102719,0.112191739450451));
#456=CARTESIAN_POINT('Origin',(-64.3895222052765,36.7646477102719,0.112191739450451));
#457=CARTESIAN_POINT('',(-64.3895222052765,36.7646477102719,0.112191739450451));
#458=CARTESIAN_POINT('',(-20.272953149954,36.7646477102719,0.112191739450451));
#459=CARTESIAN_POINT('',(-64.3895222052765,36.7646477102719,4.91219173945045));
#460=CARTESIAN_POINT('',(-20.272953149954,36.7646477102719,4.91219173945045));
#461=CARTESIAN_POINT('',(-64.3895222052765,36.7646477102719,0.112191739450451));
#462=CARTESIAN_POINT('Origin',(-64.3895222052765,54.2283453615828,0.112191739450472));
#463=CARTESIAN_POINT('',(-64.3895222052765,54.2283453615828,0.112191739450473));
#464=CARTESIAN_POINT('',(-64.3895222052765,36.7646477102719,0.112191739450451));
#465=CARTESIAN_POINT('',(-64.3895222052765,54.2283453615828,4.91219173945047));
#466=CARTESIAN_POINT('',(-64.3895222052765,36.7646477102719,4.91219173945045));
#467=CARTESIAN_POINT('',(-64.3895222052765,54.2283453615828,0.112191739450473));
#468=CARTESIAN_POINT('Origin',(-20.272953149954,54.2283453615828,0.112191739450477));
#469=CARTESIAN_POINT('',(-64.3895222052765,54.2283453615828,0.112191739450473));
#470=CARTESIAN_POINT('',(-64.3895222052765,54.2283453615828,4.91219173945047));
#471=CARTESIAN_POINT('Origin',(-42.3312376776153,45.4964965359274,4.91219173945046));
#472=CARTESIAN_POINT('Origin',(-42.3312376776153,45.4964965359274,0.11219173945046));
#473=CARTESIAN_POINT('',(0.,0.,0.));
#474=UNCERTAINTY_MEASURE_WITH_UNIT(LENGTH_MEASURE(0.01),#480,
'DISTANCE_ACCURACY_VALUE',
'Maximum model space distance between geometric entities at asserted c
onnectivities');
#475=UNCERTAINTY_MEASURE_WITH_UNIT(LENGTH_MEASURE(0.01),#480,
'DISTANCE_ACCURACY_VALUE',
'Maximum model space distance between geometric entities at asserted c
onnectivities');
#476=UNCERTAINTY_MEASURE_WITH_UNIT(LENGTH_MEASURE(0.01),#480,
'DISTANCE_ACCURACY_VALUE',
'Maximum model space distance between geometric entities at asserted c
onnectivities');
#477=(
GEOMETRIC_REPRESENTATION_CONTEXT(3)
GLOBAL_UNCERTAINTY_ASSIGNED_CONTEXT((#474))
GLOBAL_UNIT_ASSIGNED_CONTEXT((#480,#482,#483))
REPRESENTATION_CONTEXT('','3D')
);
#478=(
GEOMETRIC_REPRESENTATION_CONTEXT(3)
GLOBAL_UNCERTAINTY_ASSIGNED_CONTEXT((#475))
GLOBAL_UNIT_ASSIGNED_CONTEXT((#480,#482,#483))
REPRESENTATION_CONTEXT('','3D')
);
#479=(
GEOMETRIC_REPRESENTATION_CONTEXT(3)
GLOBAL_UNCERTAINTY_ASSIGNED_CONTEXT((#476))
GLOBAL_UNIT_ASSIGNED_CONTEXT((#480,#482,#483))
REPRESENTATION_CONTEXT('','3D')
);
#480=(
LENGTH_UNIT()
NAMED_UNIT(*)
SI_UNIT(.MILLI.,.METRE.)
);
#481=(
LENGTH_UNIT()
NAMED_UNIT(*)
SI_UNIT($,.METRE.)
);
#482=(
NAMED_UNIT(*)
PLANE_ANGLE_UNIT()
SI_UNIT($,.RADIAN.)
);
#483=(
NAMED_UNIT(*)
SI_UNIT($,.STERADIAN.)
SOLID_ANGLE_UNIT()
);
#484=SHAPE_DEFINITION_REPRESENTATION(#486,#489);
#485=SHAPE_DEFINITION_REPRESENTATION(#487,#490);
#486=PRODUCT_DEFINITION_SHAPE('',$,#492);
#487=PRODUCT_DEFINITION_SHAPE('',$,#493);
#488=PRODUCT_DEFINITION_SHAPE($,$,#14);
#489=SHAPE_REPRESENTATION('',(#290,#315),#477);
#490=SHAPE_REPRESENTATION('',(#291),#478);
#491=PRODUCT_DEFINITION_CONTEXT('part definition',#499,'design');
#492=PRODUCT_DEFINITION('servo mount','servo mount v4',#494,#491);
#493=PRODUCT_DEFINITION('hornholder','hornholder',#495,#491);
#494=PRODUCT_DEFINITION_FORMATION('',$,#501);
#495=PRODUCT_DEFINITION_FORMATION('',$,#502);
#496=PRODUCT_RELATED_PRODUCT_CATEGORY('servo mount v4','servo mount v4',
(#501));
#497=PRODUCT_RELATED_PRODUCT_CATEGORY('hornholder','hornholder',(#502));
#498=APPLICATION_PROTOCOL_DEFINITION('international standard',
'automotive_design',2009,#499);
#499=APPLICATION_CONTEXT(
'Core Data for Automotive Mechanical Design Process');
#500=PRODUCT_CONTEXT('part definition',#499,'mechanical');
#501=PRODUCT('servo mount','servo mount v4',$,(#500));
#502=PRODUCT('hornholder','hornholder',$,(#500));
#503=PRESENTATION_STYLE_ASSIGNMENT((#504));
#504=SURFACE_STYLE_USAGE(.BOTH.,#505);
#505=SURFACE_SIDE_STYLE('',(#506));
#506=SURFACE_STYLE_FILL_AREA(#507);
#507=FILL_AREA_STYLE('Steel - Satin',(#508));
#508=FILL_AREA_STYLE_COLOUR('Steel - Satin',#509);
#509=COLOUR_RGB('Steel - Satin',0.627450980392157,0.627450980392157,0.627450980392157);
ENDSEC;
END-ISO-10303-21;
